<?xml version="1.0" encoding="UTF-8"?>
<svg version="1.1" xmlns="http://www.w3.org/2000/svg" width="387" height="143">
<path d="M0 0 C127.71 0 255.42 0 387 0 C387 47.19 387 94.38 387 143 C259.29 143 131.58 143 0 143 C0 95.81 0 48.62 0 0 Z " fill="#FDFDFC" transform="translate(0,0)"/>
<path d="M0 0 C4.90875 -0.103125 9.8175 -0.20625 14.875 -0.3125 C16.40237793 -0.35802002 17.92975586 -0.40354004 19.50341797 -0.45043945 C27.64778133 -0.53287228 34.16940239 0.11081458 41 5 C45.80261124 9.9197481 46.47216238 14.39631796 46.41015625 21.06640625 C45.73676779 25.88273702 43.54070823 29.68513941 40 33 C36.7890625 34.24609375 36.7890625 34.24609375 34 35 C35.2449341 37.54425853 36.49573888 40.08534361 37.75 42.625 C38.09804687 43.33785156 38.44609375 44.05070312 38.8046875 44.78515625 C40.46140587 48.12927296 42.14543089 51.32284728 44.265625 54.3984375 C46 57 46 57 46 59 C40.72 59 35.44 59 30 59 C29.16855469 57.49566406 28.33710937 55.99132812 27.48046875 54.44140625 C26.38329631 52.48149992 25.2856136 50.52187917 24.1875 48.5625 C23.64029297 47.56927734 23.09308594 46.57605469 22.52929688 45.55273438 C21.99755859 44.60849609 21.46582031 43.66425781 20.91796875 42.69140625 C20.43094482 41.81685791 19.9439209 40.94230957 19.44213867 40.04125977 C18.09105962 37.70126902 18.09105962 37.70126902 15 37 C15 44.26 15 51.52 15 59 C10.05 59 5.1 59 0 59 C0 39.53 0 20.06 0 0 Z " fill="#990707" transform="translate(90,36)"/>
<path d="M0 0 C4.62 0 9.24 0 14 0 C14 8.25 14 16.5 14 25 C14.66 25 15.32 25 16 25 C16.24363281 24.28328125 16.48726562 23.5665625 16.73828125 22.828125 C18.64512667 18.55395756 21.62967311 15.39845177 24.6640625 11.87109375 C27.01955016 9.12617829 27.01955016 9.12617829 28.5859375 6.28515625 C30.22311962 3.54352588 31.37399525 1.84265418 34 0 C39.27239435 -1.06996152 44.6891147 -0.51642462 50 0 C48.64982154 2.88414456 47.10840012 5.33818587 45.171875 7.86328125 C44.61886719 8.58580078 44.06585938 9.30832031 43.49609375 10.05273438 C42.63177734 11.17131836 42.63177734 11.17131836 41.75 12.3125 C41.18925781 13.04662109 40.62851562 13.78074219 40.05078125 14.53710938 C36.50370176 19.15322784 32.8256792 23.61206188 29 28 C30.85732197 31.92307027 33.35354963 35.13380216 36.0625 38.5 C37.0504986 39.74267976 38.03745936 40.98618529 39.0234375 42.23046875 C39.5194043 42.85614746 40.01537109 43.48182617 40.52636719 44.12646484 C42.78260358 46.9949801 44.9929852 49.8966049 47.1875 52.8125 C47.92355469 53.78832031 48.65960938 54.76414063 49.41796875 55.76953125 C51 58 51 58 51 59 C36.45208785 60.82270825 36.45208785 60.82270825 30.92578125 56.71484375 C28.78269054 54.10747279 26.88043342 51.53799991 25.08642578 48.68994141 C23.33827545 45.97068374 21.33268919 43.44553103 19.375 40.875 C16 36.27272727 16 36.27272727 16 34 C15.34 34 14.68 34 14 34 C14 42.25 14 50.5 14 59 C9.38 59 4.76 59 0 59 C0 39.53 0 20.06 0 0 Z " fill="#960404" transform="translate(234,36)"/>
<path d="M0 0 C4.49629109 3.67878362 8.47256906 7.83573022 10.75 13.25 C10.75 14.24 10.75 15.23 10.75 16.25 C8.18571485 16.38559675 5.62864784 16.48433188 3.0625 16.5625 C2.34126953 16.60439453 1.62003906 16.64628906 0.87695312 16.68945312 C-3.38824957 16.78683218 -4.78248094 16.63846696 -8.20703125 13.79296875 C-8.88121094 12.95378906 -9.55539063 12.11460938 -10.25 11.25 C-12.03933876 9.46066124 -14.5801621 9.99356941 -17 9.9375 C-20.87166124 9.97883446 -22.85833058 10.04217541 -26.3125 11.875 C-30.49532009 17.00232786 -31.8128781 21.16663426 -31.60546875 27.71484375 C-30.92270851 32.58419977 -29.03129626 36.54341594 -25.48046875 39.9453125 C-21.15166721 42.47739606 -16.0922868 41.86520857 -11.25 41.25 C-8.17634214 39.44196596 -6.81980268 38.38960536 -5.25 35.25 C0.03 35.25 5.31 35.25 10.75 35.25 C8.50505088 43.10732192 5.50297533 48.36821263 -1.6015625 52.67578125 C-10.21309618 56.6359347 -19.38620904 57.95024561 -28.4375 54.625 C-36.77589919 50.87402733 -41.57410058 45.60431685 -45.25 37.25 C-47.90227064 29.56521585 -47.64481597 18.00701593 -44.25 10.625 C-39.58544557 2.96366479 -33.46567638 -1.38097532 -24.9765625 -4.09375 C-16.12675658 -6.22378925 -7.93319364 -4.27171965 0 0 Z " fill="#980707" transform="translate(214.25,39.75)"/>
<path d="M0 0 C3.87637197 2.22354033 6.85335886 5.28792412 9.04296875 9.171875 C9.73046875 12.9375 9.73046875 12.9375 10.04296875 16.171875 C7.43707985 16.30681746 4.83814764 16.40589799 2.23046875 16.484375 C1.49248047 16.52626953 0.75449219 16.56816406 -0.00585938 16.61132812 C-2.1640625 16.66015625 -2.1640625 16.66015625 -5.95703125 16.171875 C-7.74609375 13.6796875 -7.74609375 13.6796875 -8.95703125 11.171875 C-12.49933934 10.58845147 -12.49933934 10.58845147 -15.95703125 11.171875 C-18.2246235 12.98062696 -18.2246235 12.98062696 -18.01953125 15.546875 C-16.43781739 19.45463866 -13.64427221 20.56555221 -9.95703125 22.171875 C-6.66565256 23.43343538 -3.36840098 24.65908944 -0.04296875 25.828125 C4.4834508 27.79912288 7.30888196 30.07074482 10.04296875 34.171875 C10.7524981 40.55763911 10.93379811 46.80521382 7.04296875 52.171875 C0.12902582 58.39442364 -5.95239815 59.60660547 -15.0703125 59.51953125 C-21.1903668 58.78247464 -26.19085421 55.98220647 -30.45703125 51.609375 C-30.95203125 50.805 -31.44703125 50.000625 -31.95703125 49.171875 C-32.36953125 48.511875 -32.78203125 47.851875 -33.20703125 47.171875 C-34.11584253 44.74837824 -34.00775309 42.74178152 -33.95703125 40.171875 C-31.53766808 40.00938046 -29.12921266 39.89089683 -26.70703125 39.796875 C-26.02511719 39.74660156 -25.34320313 39.69632813 -24.640625 39.64453125 C-22.62890625 39.5859375 -22.62890625 39.5859375 -18.95703125 40.171875 C-16.69921875 43.16796875 -16.69921875 43.16796875 -14.95703125 46.171875 C-11.47233275 46.59244206 -9.12439329 46.75555602 -5.95703125 45.171875 C-5.4553371 42.34114064 -5.4553371 42.34114064 -5.95703125 39.171875 C-9.32852508 36.06655173 -12.45337996 34.95066703 -16.83203125 33.734375 C-23.14439038 31.95664735 -28.76979802 29.51914908 -32.45703125 23.859375 C-34.81217245 18.06965289 -34.84416746 13.65382351 -32.45703125 7.984375 C-26.2889095 -3.24647033 -10.8716241 -4.19814993 0 0 Z " fill="#980506" transform="translate(324.95703125,36.828125)"/>
<path d="M0 0 C7.26 0 14.52 0 22 0 C22 3.96 22 7.92 22 12 C19.69 12.33 17.38 12.66 15 13 C15 15.97 15 18.94 15 22 C11.04 22.495 11.04 22.495 7 23 C11.95 23.33 16.9 23.66 22 24 C22.09765625 31.71484375 22.09765625 31.71484375 22 34 C21.67 34.33 21.34 34.66 21 35 C19.35 35 17.7 35 16 35 C16.33 38.63 16.66 42.26 17 46 C18.32 46.33 19.64 46.66 21 47 C21 50.96 21 54.92 21 59 C14.07 59 7.14 59 0 59 C-0.06058594 56.00292969 -0.12117188 53.00585938 -0.18359375 49.91796875 C-0.24538275 47.01877314 -0.30877063 44.1196166 -0.37231445 41.22045898 C-0.41565529 39.20389271 -0.45733098 37.18728993 -0.49731445 35.1706543 C-0.55503747 32.27381383 -0.61872622 29.37715694 -0.68359375 26.48046875 C-0.70030624 25.57725388 -0.71701874 24.674039 -0.73423767 23.74345398 C-0.75418289 22.90280899 -0.77412811 22.062164 -0.79467773 21.19604492 C-0.81022202 20.45658127 -0.8257663 19.71711761 -0.84178162 18.95524597 C-0.93912225 16.7848329 -0.93912225 16.7848329 -2 14 C-1.52401485 9.30033054 -0.72827056 4.66949949 0 0 Z " fill="#DFB2B6" transform="translate(34,36)"/>
<path d="M0 0 C9.07639045 -0.45381952 14.39901132 0.31920906 21.5 6 C23.95340818 10.90681636 24.06971433 15.65142837 23 21 C21.05810896 24.15617526 18.7921786 26.57821244 16 29 C16.48210937 29.38671875 16.96421875 29.7734375 17.4609375 30.171875 C18.09257813 30.69265625 18.72421875 31.2134375 19.375 31.75 C20.31472656 32.51570313 20.31472656 32.51570313 21.2734375 33.296875 C24.36237003 36.34387632 24.96322634 38.54400664 25.3125 42.875 C25.19322559 46.88560193 24.23567818 49.60793656 22 53 C16.83840192 57.76455208 13.27428974 59.26548579 6.25 59.125 C5.07953125 59.10695312 3.9090625 59.08890625 2.703125 59.0703125 C1.81109375 59.04710937 0.9190625 59.02390625 0 59 C0 55.04 0 51.08 0 47 C2.05078125 46.77213542 4.1015625 46.54427083 6.15234375 46.31640625 C8.01140229 46.18113386 8.01140229 46.18113386 9 45 C9.25003964 41.54178598 9.25003964 41.54178598 9 38 C6.23776722 35.23776722 3.79293383 35.42143709 0 35 C0 31.37 0 27.74 0 24 C1.7015625 23.5359375 1.7015625 23.5359375 3.4375 23.0625 C6.78775099 22.37075469 6.78775099 22.37075469 8 21 C8.25005386 18.04182893 8.25005386 18.04182893 8 15 C5.4345406 12.4345406 3.52313332 12.45953913 0 12 C0 8.04 0 4.08 0 0 Z " fill="#2E2D2B" transform="translate(57,36)"/>
<path d="M0 0 C4.95 0 9.9 0 15 0 C15 19.8 15 39.6 15 60 C10.05 60 5.1 60 0 60 C0 40.2 0 20.4 0 0 Z " fill="#9A0102" transform="translate(145,36)"/>
<path d="M0 0 C-1.35017846 2.88414456 -2.89159988 5.33818587 -4.828125 7.86328125 C-5.38113281 8.58580078 -5.93414062 9.30832031 -6.50390625 10.05273438 C-7.36822266 11.17131836 -7.36822266 11.17131836 -8.25 12.3125 C-9.09111328 13.41368164 -9.09111328 13.41368164 -9.94921875 14.53710938 C-13.49629824 19.15322784 -17.1743208 23.61206188 -21 28 C-19.14267803 31.92307027 -16.64645037 35.13380216 -13.9375 38.5 C-12.9495014 39.74267976 -11.96254064 40.98618529 -10.9765625 42.23046875 C-10.4805957 42.85614746 -9.98462891 43.48182617 -9.47363281 44.12646484 C-7.21739642 46.9949801 -5.0070148 49.8966049 -2.8125 52.8125 C-2.07644531 53.78832031 -1.34039062 54.76414063 -0.58203125 55.76953125 C1 58 1 58 1 59 C-13.5560773 60.82373126 -13.5560773 60.82373126 -19.109375 56.6796875 C-21.69688697 53.53770867 -23.83704206 50.44620537 -26 47 C-27.3696528 45.07950857 -28.74410789 43.16242597 -30.125 41.25 C-31.08906273 39.83722604 -32.04980874 38.42214057 -33 37 C-31.515 36.505 -31.515 36.505 -30 36 C-29.67 37.32 -29.34 38.64 -29 40 C-28.67 39.34 -28.34 38.68 -28 38 C-27.34 38 -26.68 38 -26 38 C-26 37.34 -26 36.68 -26 36 C-24.5 34.375 -24.5 34.375 -23 33 C-23.99 32.67 -24.98 32.34 -26 32 C-25.21718695 30.66144944 -24.42348123 29.32926356 -23.625 28 C-23.18414062 27.2575 -22.74328125 26.515 -22.2890625 25.75 C-21.86367188 25.1725 -21.43828125 24.595 -21 24 C-20.34 24 -19.68 24 -19 24 C-19.33 23.01 -19.66 22.02 -20 21 C-19.34 21 -18.68 21 -18 21 C-18 20.34 -18 19.68 -18 19 C-17.34 19 -16.68 19 -16 19 C-16 17.02 -16 15.04 -16 13 C-17.98 13.66 -19.96 14.32 -22 15 C-22.33 14.34 -22.66 13.68 -23 13 C-23.391875 13.9075 -23.78375 14.815 -24.1875 15.75 C-26.0787372 19.14118394 -27.8554673 20.79032837 -31 23 C-31.66 22.67 -32.32 22.34 -33 22 C-29.29472536 17.00817167 -29.29472536 17.00817167 -27.74633789 14.99511719 C-25.73470558 12.37463546 -23.88886938 9.81502129 -22.18359375 6.9765625 C-16.42850554 -2.01013005 -9.70850653 -1.06039513 0 0 Z " fill="#970606" transform="translate(284,36)"/>
<path d="M0 0 C2.64901929 2.19265359 3.8870978 3.3617025 4.49609375 6.8046875 C4.29278183 17.45823195 4.29278183 17.45823195 1 22 C-5.91394293 28.22254864 -11.9953669 29.43473047 -21.11328125 29.34765625 C-27.23333555 28.61059964 -32.23382296 25.81033147 -36.5 21.4375 C-36.995 20.633125 -37.49 19.82875 -38 19 C-38.61875 18.01 -38.61875 18.01 -39.25 17 C-40.15881128 14.57650324 -40.05072184 12.56990652 -40 10 C-37.58063683 9.83750546 -35.17218141 9.71902183 -32.75 9.625 C-31.72712891 9.54958984 -31.72712891 9.54958984 -30.68359375 9.47265625 C-28.671875 9.4140625 -28.671875 9.4140625 -25 10 C-22.7421875 12.99609375 -22.7421875 12.99609375 -21 16 C-17.5153015 16.42056706 -15.16736204 16.58368102 -12 15 C-11.34227572 11.97065509 -11.34227572 11.97065509 -11 9 C-10.01 9.33 -9.02 9.66 -8 10 C-8.96355353 20.55808656 -8.96355353 20.55808656 -10 25 C-8.02 24.67 -6.04 24.34 -4 24 C-3.67 21.03 -3.34 18.06 -3 15 C-1.02 14.34 0.96 13.68 3 13 C2.68817931 11.58318366 2.37551263 10.16655349 2.0625 8.75 C1.88847656 7.96109375 1.71445312 7.1721875 1.53515625 6.359375 C1.052444 4.23121297 0.53836822 2.11467158 0 0 Z " fill="#970B0C" transform="translate(331,67)"/>
<path d="M0 0 C4.95 0 9.9 0 15 0 C15 19.8 15 39.6 15 60 C10.05 60 5.1 60 0 60 C0 40.2 0 20.4 0 0 Z M2 1 C2 19.48 2 37.96 2 57 C5.3 57 8.6 57 12 57 C12.87831865 50.23785817 13.13348574 43.65419372 13.09765625 36.83984375 C13.0962413 35.80936417 13.09482635 34.77888458 13.09336853 33.71717834 C13.08781447 30.45725481 13.0752707 27.19740243 13.0625 23.9375 C13.05747906 21.71419371 13.05291719 19.49088633 13.04882812 17.26757812 C13.03786013 11.84502507 13.02062762 6.42252456 13 1 C9.37 1 5.74 1 2 1 Z " fill="#9A3132" transform="translate(145,36)"/>
<path d="M0 0 C0.33 0 0.66 0 1 0 C1 2.97 1 5.94 1 9 C2.093125 8.938125 3.18625 8.87625 4.3125 8.8125 C8 9 8 9 9.9375 10.0625 C11.59162584 13.07884711 11.30575763 15.63666608 11 19 C9 21 9 21 7.0546875 21.1953125 C5.03645833 21.13020833 3.01822917 21.06510417 1 21 C1 24.96 1 28.92 1 33 C3.64 33 6.28 33 9 33 C9 33.33 9 33.66 9 34 C-0.9 34 -10.8 34 -21 34 C-21 33.67 -21 33.34 -21 33 C-14.4 33 -7.8 33 -1 33 C-1 29.04 -1 25.08 -1 21 C-2.65 20.67 -4.3 20.34 -6 20 C-6 16.37 -6 12.74 -6 9 C-4.35 8.67 -2.7 8.34 -1 8 C-0.67 5.36 -0.34 2.72 0 0 Z " fill="#F4ECED" transform="translate(56,62)"/>
<path d="M0 0 C6.6 0 13.2 0 20 0 C20 3.63 20 7.26 20 11 C13.4 11 6.8 11 0 11 C0 7.37 0 3.74 0 0 Z " fill="#6E0418" transform="translate(35,84)"/>
<path d="M0 0 C6.6 0 13.2 0 20 0 C20 3.63 20 7.26 20 11 C13.4 11 6.8 11 0 11 C0 7.37 0 3.74 0 0 Z " fill="#6F0619" transform="translate(35,36)"/>
<path d="M0 0 C1.8975 -0.061875 3.795 -0.12375 5.75 -0.1875 C7.35101563 -0.23970703 7.35101563 -0.23970703 8.984375 -0.29296875 C12.35311 0.03430473 13.69441969 0.54549465 16 3 C16.4609375 4.9375 16.4609375 4.9375 16.375 7 C16.35566406 8.0209375 16.35566406 8.0209375 16.3359375 9.0625 C16 11 16 11 14 14 C10.7421875 14.29296875 10.7421875 14.29296875 6.875 14.1875 C3.471875 14.0946875 3.471875 14.0946875 0 14 C0 9.38 0 4.76 0 0 Z " fill="#FCF8F7" transform="translate(105,48)"/>
<path d="M0 0 C6.93 0 13.86 0 21 0 C21 3.3 21 6.6 21 10 C14.07 10 7.14 10 0 10 C0 6.7 0 3.4 0 0 Z " fill="#730D1F" transform="translate(35,60)"/>
<path d="M0 0 C0.66 0 1.32 0 2 0 C2.33 18.48 2.66 36.96 3 56 C5.97 56.33 8.94 56.66 12 57 C12.33 51.39 12.66 45.78 13 40 C13.33 40 13.66 40 14 40 C14 46.27 14 52.54 14 59 C9.38 59 4.76 59 0 59 C0 39.53 0 20.06 0 0 Z " fill="#932122" transform="translate(90,36)"/>
<path d="M0 0 C4.62 0 9.24 0 14 0 C14 2.64 14 5.28 14 8 C9.38 8 4.76 8 0 8 C0 5.36 0 2.72 0 0 Z " fill="#810B0C" transform="translate(35,73)"/>
<path d="M0 0 C4.62 0 9.24 0 14 0 C14 2.64 14 5.28 14 8 C9.38 8 4.76 8 0 8 C0 5.36 0 2.72 0 0 Z " fill="#8F0C0D" transform="translate(35,50)"/>
<path d="M0 0 C4.48735904 3.67147558 8.65472623 7.37417836 9.75 13.25 C8.43 12.92 7.11 12.59 5.75 12.25 C5.62625 11.610625 5.5025 10.97125 5.375 10.3125 C5.16875 9.631875 4.9625 8.95125 4.75 8.25 C4.09 7.92 3.43 7.59 2.75 7.25 C2.255 5.765 2.255 5.765 1.75 4.25 C-5.76800295 -1.05682561 -12.3407458 -2.40984655 -21.3125 -1.25 C-24.68885926 -0.82125597 -27.85499159 -0.66512479 -31.25 -0.75 C-23.27736046 -8.72263954 -8.61516142 -4.63893307 0 0 Z " fill="#8D181B" transform="translate(214.25,39.75)"/>
<path d="M0 0 C2.64901929 2.19265359 3.8870978 3.3617025 4.49609375 6.8046875 C4.29278183 17.45823195 4.29278183 17.45823195 1 22 C-5.59400545 27.9346049 -5.59400545 27.9346049 -9.6875 28.125 C-10.450625 28.08375 -11.21375 28.0425 -12 28 C-12.33 27.34 -12.66 26.68 -13 26 C-10.03 25.34 -7.06 24.68 -4 24 C-3.505 19.545 -3.505 19.545 -3 15 C-1.02 14.34 0.96 13.68 3 13 C2.68817931 11.58318366 2.37551263 10.16655349 2.0625 8.75 C1.88847656 7.96109375 1.71445312 7.1721875 1.53515625 6.359375 C1.052444 4.23121297 0.53836822 2.11467158 0 0 Z " fill="#911618" transform="translate(331,67)"/>
<path d="M0 0 C0.99 0 1.98 0 3 0 C5.1875 3 5.1875 3 7 6 C7.33 4.02 7.66 2.04 8 0 C8.66 0 9.32 0 10 0 C10 3.96 10 7.92 10 12 C6.26360784 10.75453595 5.81243487 9.36595047 4 6 C3.67 7.98 3.34 9.96 3 12 C2.01 12 1.02 12 0 12 C0 8.04 0 4.08 0 0 Z " fill="#515151" transform="translate(113,112)"/>
<path d="M0 0 C2.64 0 5.28 0 8 0 C8.625 2.375 8.625 2.375 9 5 C8.34 5.66 7.68 6.32 7 7 C5.68 7 4.36 7 3 7 C3 8.65 3 10.3 3 12 C2.01 12 1.02 12 0 12 C0 8.04 0 4.08 0 0 Z " fill="#A3A3A3" transform="translate(204,112)"/>
<path d="M0 0 C2.875 -0.125 2.875 -0.125 6 0 C6.66 0.66 7.32 1.32 8 2 C7.625 4.125 7.625 4.125 7 6 C6.34 6 5.68 6 5 6 C5.495 6.61875 5.99 7.2375 6.5 7.875 C8 10 8 10 8 12 C7.01 12 6.02 12 5 12 C4.71125 11.360625 4.4225 10.72125 4.125 10.0625 C3.17176549 7.84793921 3.17176549 7.84793921 1 7 C0.67 8.32 0.34 9.64 0 11 C0 7.37 0 3.74 0 0 Z " fill="#3C3C3C" transform="translate(150,112)"/>
<path d="M0 0 C0.99 0 1.98 0 3 0 C3.5345256 1.24420647 4.05208611 2.49570936 4.5625 3.75 C4.85253906 4.44609375 5.14257812 5.1421875 5.44140625 5.859375 C6.07831803 8.30012784 5.80248831 9.6403655 5 12 C4.67 11.01 4.34 10.02 4 9 C1.52733235 9.34444881 1.52733235 9.34444881 -1 10 C-1.33 10.66 -1.66 11.32 -2 12 C-2.66 12 -3.32 12 -4 12 C-3.52494322 10.18641846 -3.04483958 8.37415821 -2.5625 6.5625 C-2.29566406 5.55316406 -2.02882812 4.54382813 -1.75390625 3.50390625 C-1 1 -1 1 0 0 Z " fill="#6D6D6B" transform="translate(171,112)"/>
<path d="M0 0 C0.99 0 1.98 0 3 0 C3.50833591 1.24663331 4.00631145 2.49749387 4.5 3.75 C4.7784375 4.44609375 5.056875 5.1421875 5.34375 5.859375 C6 8 6 8 6 12 C5.34 12 4.68 12 4 12 C4 11.01 4 10.02 4 9 C1.52733235 9.34444881 1.52733235 9.34444881 -1 10 C-1.33 10.66 -1.66 11.32 -2 12 C-2.66 12 -3.32 12 -4 12 C-3.45660208 7.43545749 -2.20536179 4.0271824 0 0 Z " fill="#6A6A68" transform="translate(226,112)"/>
<path d="M0 0 C1.65 0 3.3 0 5 0 C5 0.99 5 1.98 5 3 C6.32 2.67 7.64 2.34 9 2 C9.33 2.66 9.66 3.32 10 4 C9 5 8 6 7 7 C6.2884375 7.8353125 6.2884375 7.8353125 5.5625 8.6875 C4 10 4 10 0 10 C0 6.7 0 3.4 0 0 Z " fill="#272524" transform="translate(58,60)"/>
<path d="M0 0 C5.28 0 10.56 0 16 0 C15.34 2.31 14.68 4.62 14 7 C13.01 7.495 13.01 7.495 12 8 C12 6.35 12 4.7 12 3 C5.30935329 2.26147822 5.30935329 2.26147822 -0.375 5.0625 C-0.91125 5.701875 -1.4475 6.34125 -2 7 C-4.25 6.75 -4.25 6.75 -6 6 C-5.195625 5.38125 -4.39125 4.7625 -3.5625 4.125 C-0.96125481 2.25835959 -0.96125481 2.25835959 0 0 Z " fill="#861A19" transform="translate(209,75)"/>
<path d="M0 0 C3.30602451 3.12732048 5.74289154 6.06164359 8 10 C5.22813012 10.10787818 2.46044463 10.18723327 -0.3125 10.25 C-1.09818359 10.28351563 -1.88386719 10.31703125 -2.69335938 10.3515625 C-4.86660547 10.38855392 -6.85969901 10.38367634 -9 10 C-11.04296875 7.984375 -11.04296875 7.984375 -12 6 C-11.01 6 -10.02 6 -9 6 C-9 6.66 -9 7.32 -9 8 C-4.71 8 -0.42 8 4 8 C3.01 6.576875 3.01 6.576875 2 5.125 C0 2 0 2 0 0 Z " fill="#850F11" transform="translate(277,85)"/>
<path d="M0 0 C0.33 0.99 0.66 1.98 1 3 C-1.64 3 -4.28 3 -7 3 C-7 4.65 -7 6.3 -7 8 C-3.71303767 8.79953138 -2.28976808 9.09658936 1 8 C0.67 8.99 0.34 9.98 0 11 C-2.75 11.75 -2.75 11.75 -6 12 C-8.375 10.375 -8.375 10.375 -10 8 C-10.49089348 5.12476676 -10.41359492 3.70554428 -8.9375 1.1875 C-6.00731249 -0.60842137 -3.3527047 -0.18977574 0 0 Z " fill="#494949" transform="translate(251,112)"/>
<path d="M0 0 C0.33 0 0.66 0 1 0 C1 3.3 1 6.6 1 10 C2.36125 9.7215625 2.36125 9.7215625 3.75 9.4375 C6.68314324 9.04265379 8.2644657 9.05308428 11 10 C11.33 9.34 11.66 8.68 12 8 C12.99 9.485 12.99 9.485 14 11 C13.34 11 12.68 11 12 11 C12 11.66 12 12.32 12 13 C12.66 13 13.32 13 14 13 C14 13.66 14 14.32 14 15 C13.01 15.495 13.01 15.495 12 16 C11.34 16.99 10.68 17.98 10 19 C9.5359375 17.5459375 9.5359375 17.5459375 9.0625 16.0625 C8.30476658 13.15934208 8.30476658 13.15934208 7 12 C4.67182036 11.63239269 2.3381615 11.29758419 0 11 C0 7.37 0 3.74 0 0 Z " fill="#494947" transform="translate(57,60)"/>
<path d="M0 0 C3.94668939 -0.12509012 7.89258657 -0.21502442 11.84082031 -0.2746582 C13.83179353 -0.31169623 15.82221653 -0.37528228 17.8125 -0.43945312 C26.12796761 -0.5444464 31.9841845 0.41209942 39 5 C39 5.99 39 6.98 39 8 C38.505 7.01 38.505 7.01 38 6 C35.67328146 5.31060191 33.33932406 4.64533078 31 4 C30.01 3.34 29.02 2.68 28 2 C24.9957293 1.63072954 24.9957293 1.63072954 21.58203125 1.5859375 C20.32841797 1.54726563 19.07480469 1.50859375 17.78320312 1.46875 C16.47287109 1.4378125 15.16253906 1.406875 13.8125 1.375 C12.4771884 1.33680662 11.14190108 1.29775409 9.80664062 1.2578125 C6.53790112 1.16340847 3.26916936 1.07782983 0 1 C0 0.67 0 0.34 0 0 Z " fill="#8F2324" transform="translate(92,36)"/>
<path d="M0 0 C3.63 0 7.26 0 11 0 C11 1.65 11 3.3 11 5 C7.7 4.67 4.4 4.34 1 4 C0.67 2.68 0.34 1.36 0 0 Z " fill="#990203" transform="translate(37,75)"/>
<path d="M0 0 C-0.66 1.32 -1.32 2.64 -2 4 C-2.33 3.01 -2.66 2.02 -3 1 C-9.62523421 1.0266609 -13.76859111 1.78341169 -18.625 6.4296875 C-20.20290726 8.16265698 -20.20290726 8.16265698 -22 11 C-22.66 10.67 -23.32 10.34 -24 10 C-17.9141476 -1.21078073 -11.58466106 -1.26531492 0 0 Z " fill="#8B1B1E" transform="translate(284,36)"/>
<path d="M0 0 C1.4540625 0.0309375 1.4540625 0.0309375 2.9375 0.0625 C2.6075 1.0525 2.2775 2.0425 1.9375 3.0625 C0.9475 2.7325 -0.0425 2.4025 -1.0625 2.0625 C-1.0625 2.7225 -1.0625 3.3825 -1.0625 4.0625 C1.40076712 5.7071674 1.40076712 5.7071674 3.9375 7.0625 C3.6075 8.3825 3.2775 9.7025 2.9375 11.0625 C1.2875 11.3925 -0.3625 11.7225 -2.0625 12.0625 C-2.7225 11.0725 -3.3825 10.0825 -4.0625 9.0625 C-1.0925 9.5575 -1.0925 9.5575 1.9375 10.0625 C1.9375 9.0725 1.9375 8.0825 1.9375 7.0625 C0.2875 6.7325 -1.3625 6.4025 -3.0625 6.0625 C-3.44468767 4.40635343 -3.77645102 2.73792976 -4.0625 1.0625 C-3.0625 0.0625 -3.0625 0.0625 0 0 Z " fill="#414141" transform="translate(191.0625,111.9375)"/>
<path d="M0 0 C-7.09326321 1.72330907 -13.70968976 2.2494783 -21 2 C-15.95728082 -3.04271918 -5.81444872 -3.87629915 0 0 Z " fill="#962428" transform="translate(204,37)"/>
<path d="M0 0 C2.31 0 4.62 0 7 0 C7 0.33 7 0.66 7 1 C5.35 1 3.7 1 2 1 C2 2.32 2 3.64 2 5 C3.32 5.33 4.64 5.66 6 6 C4.68 6 3.36 6 2 6 C2 7.32 2 8.64 2 10 C3.65 10 5.3 10 7 10 C7 10.66 7 11.32 7 12 C4.69 12 2.38 12 0 12 C0 8.04 0 4.08 0 0 Z " fill="#474747" transform="translate(262,112)"/>
<path d="M0 0 C1.65 0.33 3.3 0.66 5 1 C3.50923566 4.2826932 1.61379679 6.93077441 -0.625 9.75 C-1.57246094 10.94882812 -1.57246094 10.94882812 -2.5390625 12.171875 C-3.02117187 12.77515625 -3.50328125 13.3784375 -4 14 C-4.66 13.34 -5.32 12.68 -6 12 C-5.01 11.67 -4.02 11.34 -3 11 C-3.33 10.01 -3.66 9.02 -4 8 C-3.34 8 -2.68 8 -2 8 C-2 7.34 -2 6.68 -2 6 C-1.34 6 -0.68 6 0 6 C0 4.02 0 2.04 0 0 Z " fill="#901315" transform="translate(268,49)"/>
<path d="M0 0 C4.92044979 4.16345751 5.0036099 5.0252693 6 12 C0.72 12 -4.56 12 -10 12 C-10 11.67 -10 11.34 -10 11 C-4.06 10.505 -4.06 10.505 2 10 C2 5.59714577 1.73734147 3.80043446 0 0 Z " fill="#912D30" transform="translate(329,41)"/>
<path d="M0 0 C1.63001953 0.01353516 1.63001953 0.01353516 3.29296875 0.02734375 C4.12441406 0.03894531 4.95585937 0.05054688 5.8125 0.0625 C5.8125 0.3925 5.8125 0.7225 5.8125 1.0625 C5.12285156 1.06507812 4.43320312 1.06765625 3.72265625 1.0703125 C-3.82070487 1.38073888 -8.33861683 3.34006841 -14.1875 8.0625 C-15.1775 7.4025 -16.1675 6.7425 -17.1875 6.0625 C-15.91918307 5.24607746 -14.64774069 4.43450895 -13.375 3.625 C-12.66730469 3.17253906 -11.95960938 2.72007813 -11.23046875 2.25390625 C-7.40989808 0.02584879 -4.33565718 -0.04661997 0 0 Z " fill="#982E2F" transform="translate(312.1875,34.9375)"/>
<path d="M0 0 C4.95 0 9.9 0 15 0 C15 0.33 15 0.66 15 1 C10.71 1 6.42 1 2 1 C3.60532389 6.69302969 3.60532389 6.69302969 6 10 C5.67 10.99 5.34 11.98 5 13 C4.15266522 11.78044315 3.32268786 10.54881704 2.5 9.3125 C1.80390625 8.28576172 1.80390625 8.28576172 1.09375 7.23828125 C0 5 0 5 0 0 Z " fill="#A14749" transform="translate(291,77)"/>
<path d="M0 0 C5.61 0 11.22 0 17 0 C16.12592443 4.37037785 15.58816431 6.54911425 13 10 C10.89453125 10.640625 10.89453125 10.640625 9 11 C9.42152344 10.44570313 9.84304688 9.89140625 10.27734375 9.3203125 C10.82519531 8.59585938 11.37304688 7.87140625 11.9375 7.125 C12.75541016 6.04605469 12.75541016 6.04605469 13.58984375 4.9453125 C15.03964624 3.05642921 15.03964624 3.05642921 16 1 C10.72 1 5.44 1 0 1 C0 0.67 0 0.34 0 0 Z " fill="#F7D9D6" transform="translate(268,35)"/>
<path d="M0 0 C2.875 0.1875 2.875 0.1875 6 1 C6.66 2.65 7.32 4.3 8 6 C12.29 6 16.58 6 21 6 C21.33 5.34 21.66 4.68 22 4 C22 4.99 22 5.98 22 7 C19.43571485 7.13559675 16.87864784 7.23433188 14.3125 7.3125 C13.59126953 7.35439453 12.87003906 7.39628906 12.12695312 7.43945312 C7.90350688 7.53587884 6.46173019 7.37389777 3.04296875 4.60546875 C1 2 1 2 0 0 Z " fill="#892927" transform="translate(203,49)"/>
<path d="M0 0 C2.97 0.495 2.97 0.495 6 1 C2.25 4 2.25 4 0 4 C1.98 8.29 3.96 12.58 6 17 C3 16 3 16 1.83203125 14.36328125 C-0.29666885 10.08141323 -1.58320037 6.89888312 -1 2 C-0.67 1.34 -0.34 0.68 0 0 Z " fill="#931F24" transform="translate(124,67)"/>
<path d="M0 0 C2.31 0 4.62 0 7 0 C7 0.33 7 0.66 7 1 C5.35 1 3.7 1 2 1 C2 2.32 2 3.64 2 5 C3.32 5.33 4.64 5.66 6 6 C4.68 6 3.36 6 2 6 C2 7.98 2 9.96 2 12 C1.34 12 0.68 12 0 12 C0 8.04 0 4.08 0 0 Z " fill="#393939" transform="translate(133,112)"/>
<path d="M0 0 C0.33 0 0.66 0 1 0 C0.7589852 6.14587738 0.7589852 6.14587738 -1.40234375 8.578125 C-2.88046971 9.78844931 -4.43647953 10.90220903 -6 12 C-6.66 11.67 -7.32 11.34 -8 11 C-6.69144447 9.16384919 -5.37805538 7.33114211 -4.0625 5.5 C-3.33160156 4.4790625 -2.60070312 3.458125 -1.84765625 2.40625 C-1.23792969 1.6121875 -0.62820313 0.818125 0 0 Z " fill="#901B1C" transform="translate(259,47)"/>
<path d="M0 0 C0.66 0.33 1.32 0.66 2 1 C2.08142927 2.7492214 2.13938541 4.49954542 2.1875 6.25 C2.22230469 7.22453125 2.25710937 8.1990625 2.29296875 9.203125 C1.96075202 12.37468742 1.11327721 13.67040307 -1 16 C-1.66 15.01 -2.32 14.02 -3 13 C-2.34 12.67 -1.68 12.34 -1 12 C-0.53101037 9.1840151 -0.53101037 9.1840151 -0.375 5.9375 C-0.30023438 4.83277344 -0.22546875 3.72804687 -0.1484375 2.58984375 C-0.09945312 1.73519531 -0.05046875 0.88054688 0 0 Z " fill="#921C1D" transform="translate(134,48)"/>
<path d="M0 0 C1.485 0.99 1.485 0.99 3 2 C3 2.99 3 3.98 3 5 C8.61 5 14.22 5 20 5 C20 5.33 20 5.66 20 6 C13.97403427 7.0712828 8.11090483 7.09945415 2 7 C1.01 5.02 0.02 3.04 -1 1 C-0.67 0.67 -0.34 0.34 0 0 Z " fill="#FDE9E8" transform="translate(316,48)"/>
<path d="M0 0 C2 1 2 1 3 3 C7.0100934 3.17864631 7.0100934 3.17864631 11 3 C11.66 2.34 12.32 1.68 13 1 C13.99 1.33 14.98 1.66 16 2 C15.01 3.485 15.01 3.485 14 5 C10.7421875 5.29296875 10.7421875 5.29296875 6.875 5.1875 C4.95300781 5.14689453 4.95300781 5.14689453 2.9921875 5.10546875 C2.00476563 5.07066406 1.01734375 5.03585938 0 5 C0 3.35 0 1.7 0 0 Z " fill="#FBEBE8" transform="translate(105,57)"/>
<path d="M0 0 C0.33 0.66 0.66 1.32 1 2 C-0.26839199 5.45925087 -2.43444525 7.43444525 -5 10 C-6.04349839 11.63978318 -7.05607981 13.30094366 -8 15 C-8.66 14.67 -9.32 14.34 -10 14 C-8.43632643 10.47761953 -6.30504111 7.72876006 -3.875 4.75 C-3.15054687 3.85796875 -2.42609375 2.9659375 -1.6796875 2.046875 C-0.84824219 1.03367188 -0.84824219 1.03367188 0 0 Z " fill="#F8DBD7" transform="translate(272,52)"/>
<path d="M0 0 C0.66 0.33 1.32 0.66 2 1 C0.85793642 2.50287218 -0.28874957 4.00223284 -1.4375 5.5 C-2.39462891 6.75296875 -2.39462891 6.75296875 -3.37109375 8.03125 C-3.90863281 8.6809375 -4.44617188 9.330625 -5 10 C-5.33 10 -5.66 10 -6 10 C-6 8.02 -6 6.04 -6 4 C-5.34 4 -4.68 4 -4 4 C-4 3.34 -4 2.68 -4 2 C-2.125 0.9375 -2.125 0.9375 0 0 Z " fill="#FBEAE7" transform="translate(255,50)"/>
<path d="M0 0 C1.65 0 3.3 0 5 0 C5 1.98 5 3.96 5 6 C3.68 6 2.36 6 1 6 C1 7.65 1 9.3 1 11 C0.67 11 0.34 11 0 11 C0 7.37 0 3.74 0 0 Z " fill="#D1D1D1" transform="translate(135,113)"/>
<path d="M0 0 C3.08236365 2.78407039 3.95206337 3.80825346 5 8 C-0.28 8 -5.56 8 -11 8 C-11 7.67 -11 7.34 -11 7 C-6.71 7 -2.42 7 2 7 C1.34 4.69 0.68 2.38 0 0 Z " fill="#811A1B" transform="translate(131,87)"/>
<path d="M0 0 C2.31 0 4.62 0 7 0 C7.33 1.65 7.66 3.3 8 5 C7.01 5 6.02 5 5 5 C5 4.01 5 3.02 5 2 C3.68 1.67 2.36 1.34 1 1 C1 4.3 1 7.6 1 11 C0.67 11 0.34 11 0 11 C0 7.37 0 3.74 0 0 Z " fill="#2D2D2D" transform="translate(205,112)"/>
<path d="M0 0 C0.33 0 0.66 0 1 0 C1.33 2.31 1.66 4.62 2 7 C2.99 7.33 3.98 7.66 5 8 C5.33 8.99 5.66 9.98 6 11 C3 12 3 12 0 12 C0 8.04 0 4.08 0 0 Z " fill="#B1B1B1" transform="translate(149,112)"/>
<path d="M0 0 C0 1.65 0 3.3 0 5 C-1.32 5 -2.64 5 -4 5 C-4 4.34 -4 3.68 -4 3 C-7.63 3 -11.26 3 -15 3 C-15 2.67 -15 2.34 -15 2 C-14.15695313 1.93941406 -13.31390625 1.87882812 -12.4453125 1.81640625 C-11.34960938 1.73261719 -10.25390625 1.64882813 -9.125 1.5625 C-8.03445312 1.48128906 -6.94390625 1.40007813 -5.8203125 1.31640625 C-3.74256403 1.08330704 -1.94647858 0 0 0 Z " fill="#860808" transform="translate(120,61)"/>
<path d="M0 0 C5.0302076 0.52537724 10.01885239 1.10594786 15 2 C15 3.65 15 5.3 15 7 C14.01 6.38125 13.02 5.7625 12 5.125 C8.10253199 2.87738041 4.3881877 1.92382899 0 1 C0 0.67 0 0.34 0 0 Z " fill="#98282A" transform="translate(305,69)"/>
<path d="M0 0 C0.66 0.33 1.32 0.66 2 1 C1.2265625 2.0828125 1.2265625 2.0828125 0.4375 3.1875 C-1.21442982 6.4195366 -1.06351675 7.61608307 0 11 C-2.50298434 8.06171403 -3.46930939 5.82097239 -4 2 C-2.125 0.9375 -2.125 0.9375 0 0 Z " fill="#F7DFDC" transform="translate(128,69)"/>
<path d="M0 0 C0.99 0 1.98 0 3 0 C3.2475 0.78375 3.495 1.5675 3.75 2.375 C5.15389099 5.32317108 6.00675737 5.9024777 9 7 C9 7.66 9 8.32 9 9 C2.07692308 7 2.07692308 7 0 4 C0 2.68 0 1.36 0 0 Z " fill="#F6DBDB" transform="translate(306,50)"/>
<path d="M0 0 C0 3 0 3 -1.35546875 4.640625 C-6.34947296 9.027682 -6.34947296 9.027682 -9.9375 8.875 C-10.9584375 8.441875 -10.9584375 8.441875 -12 8 C-8.9540687 5.96937913 -5.85687334 4.04352805 -2.7421875 2.12109375 C-1.04594593 1.1166082 -1.04594593 1.1166082 0 0 Z " fill="#F3D7D5" transform="translate(218,87)"/>
<path d="M0 0 C1.32 0.33 2.64 0.66 4 1 C5.25 3.5625 5.25 3.5625 6 6 C5.01 5.67 4.02 5.34 3 5 C3 4.34 3 3.68 3 3 C2.34 3 1.68 3 1 3 C1 5.31 1 7.62 1 10 C0.67 10 0.34 10 0 10 C0 6.7 0 3.4 0 0 Z " fill="#FBE7E5" transform="translate(105,73)"/>
<path d="M0 0 C4.875 1.75 4.875 1.75 6 4 C8.58605332 4.4683265 8.58605332 4.4683265 11.5625 4.625 C12.57441406 4.69976562 13.58632813 4.77453125 14.62890625 4.8515625 C15.80259766 4.92503906 15.80259766 4.92503906 17 5 C17 5.33 17 5.66 17 6 C5.20807175 6.92017937 5.20807175 6.92017937 2.24609375 4.6640625 C1.1875 3 1.1875 3 0 0 Z " fill="#890E0F" transform="translate(315,46)"/>
<path d="M0 0 C0.33 0.66 0.66 1.32 1 2 C3.31 2 5.62 2 8 2 C7.67 3.32 7.34 4.64 7 6 C6.67 5.01 6.34 4.02 6 3 C3.52733235 3.34444881 3.52733235 3.34444881 1 4 C0.67 4.66 0.34 5.32 0 6 C-0.66 6 -1.32 6 -2 6 C-1.34 4.02 -0.68 2.04 0 0 Z " fill="#3B3B3B" transform="translate(169,118)"/>
<path d="M0 0 C1.98 0 3.96 0 6 0 C5.67 0.99 5.34 1.98 5 3 C4.01 2.67 3.02 2.34 2 2 C2 2.66 2 3.32 2 4 C2.66 4.66 3.32 5.32 4 6 C2.35 5.67 0.7 5.34 -1 5 C-0.67 3.35 -0.34 1.7 0 0 Z " fill="#383838" transform="translate(188,112)"/>
<path d="M0 0 C1.134375 0.020625 2.26875 0.04125 3.4375 0.0625 C3.7675 1.0525 4.0975 2.0425 4.4375 3.0625 C3.15875 3.02125 1.88 2.98 0.5625 2.9375 C-1.58121492 2.82037127 -1.58121492 2.82037127 -3.5625 3.0625 C-4.2225 3.7225 -4.8825 4.3825 -5.5625 5.0625 C-4.43693182 0.07784091 -4.43693182 0.07784091 0 0 Z " fill="#434343" transform="translate(247.5625,111.9375)"/>
<path d="M0 0 C3.28788824 3.11016455 5.83735988 6.01618925 8 10 C6.25 9.9375 6.25 9.9375 4 9 C1.99159505 6.29950956 0 3.44873267 0 0 Z " fill="#8A1D1F" transform="translate(277,85)"/>
<path d="M0 0 C1.60080151 4.00200378 0.29279692 7.04556236 -1 11 C-1.66 11 -2.32 11 -3 11 C-2.44894091 7.0507432 -1.61064629 3.65079826 0 0 Z " fill="#992D31" transform="translate(171,49)"/>
<path d="M0 0 C2.0625 0.4375 2.0625 0.4375 4 1 C2.35 2.98 0.7 4.96 -1 7 C-1.66 6.67 -2.32 6.34 -3 6 C-1.125 1.125 -1.125 1.125 0 0 Z " fill="#90181B" transform="translate(277,41)"/>
<path d="M0 0 C2.49361571 1.20381448 4.68143083 2.45428722 7 4 C7 4.99 7 5.98 7 7 C3.17053157 5.54744301 1.87949705 3.57104439 0 0 Z " fill="#901D1D" transform="translate(173,83)"/>
<path d="M0 0 C2.64752004 2.57784846 4.94432065 4.91648098 7 8 C6.01 8 5.02 8 4 8 C3.67 7.34 3.34 6.68 3 6 C2.01 5.67 1.02 5.34 0 5 C0 3.35 0 1.7 0 0 Z " fill="#F9E2DF" transform="translate(249,71)"/>
<path d="M0 0 C2.475 0.495 2.475 0.495 5 1 C5 1.99 5 2.98 5 4 C3.35 4 1.7 4 0 4 C0 2.68 0 1.36 0 0 Z " fill="#CCCCCC" transform="translate(151,113)"/>
<path d="M0 0 C1.32 0 2.64 0 4 0 C4.33 0.99 4.66 1.98 5 3 C4.34 3.66 3.68 4.32 3 5 C1.68 4.34 0.36 3.68 -1 3 C-0.67 2.01 -0.34 1.02 0 0 Z " fill="#DADADA" transform="translate(190,113)"/>
<path d="M0 0 C0.66 0.33 1.32 0.66 2 1 C1.66226563 1.47050781 1.32453125 1.94101562 0.9765625 2.42578125 C0.30753906 3.35970703 0.30753906 3.35970703 -0.375 4.3125 C-0.81585938 4.92738281 -1.25671875 5.54226562 -1.7109375 6.17578125 C-2.83410907 7.7652392 -3.92041447 9.38062171 -5 11 C-4.50769231 4.6 -4.50769231 4.6 -1.9375 1.5625 C-0.9784375 0.7890625 -0.9784375 0.7890625 0 0 Z " fill="#FCE9E3" transform="translate(174,43)"/>
<path d="M0 0 C4 1 4 1 6 3 C5.67 4.32 5.34 5.64 5 7 C3.35 4.69 1.7 2.38 0 0 Z " fill="#F8DFDF" transform="translate(270,75)"/>
<path d="M0 0 C0.2475 0.5775 0.495 1.155 0.75 1.75 C2.16683317 4.3002997 3.87627537 6.01785701 6 8 C5.01 8.495 5.01 8.495 4 9 C1.875 8.0625 1.875 8.0625 0 7 C0 4.69 0 2.38 0 0 Z " fill="#8F171B" transform="translate(305,50)"/>
<path d="M0 0 C2.875 0.1875 2.875 0.1875 6 1 C7.375 3.5625 7.375 3.5625 8 6 C4.63408134 4.55746343 2.48952921 2.66735273 0 0 Z " fill="#8E191B" transform="translate(203,49)"/>
<path d="M0 0 C1.5 1.25 1.5 1.25 3 3 C3 4.32 3 5.64 3 7 C2.34 7 1.68 7 1 7 C1 6.01 1 5.02 1 4 C-0.65 4 -2.3 4 -4 4 C-2.68 3.67 -1.36 3.34 0 3 C0 2.01 0 1.02 0 0 Z " fill="#393938" transform="translate(229,117)"/>
<path d="M0 0 C1.32 0.33 2.64 0.66 4 1 C4 1.99 4 2.98 4 4 C1.69 4 -0.62 4 -3 4 C-3 3.34 -3 2.68 -3 2 C-2.01 2 -1.02 2 0 2 C0 1.34 0 0.68 0 0 Z " fill="#D7D7D7" transform="translate(189,118)"/>
<path d="M0 0 C0.99 0 1.98 0 3 0 C3.33 1.32 3.66 2.64 4 4 C4.66 4 5.32 4 6 4 C5.67 5.32 5.34 6.64 5 8 C4.16382818 6.8562364 3.33113541 5.70992861 2.5 4.5625 C2.0359375 3.92441406 1.571875 3.28632812 1.09375 2.62890625 C0 1 0 1 0 0 Z " fill="#8C1D1D" transform="translate(251,72)"/>
</svg>
